HIERARCHY
ROOT RootJoint
{
    OFFSET   0.000000   0.000000   0.000000
    CHANNELS 6 Xposition Yposition Zposition Xrotation Yrotation Zrotation
    JOINT pelvis_lowerback
    {
        OFFSET   0.000000   0.093605   0.000000
        CHANNELS 3 Xrotation Yrotation Zrotation
        JOINT lowerback_torso
        {
            OFFSET   0.000000   0.100000   0.000000
            CHANNELS 3 Xrotation Yrotation Zrotation
            JOINT torso_head
            {
                OFFSET   0.000000   0.282350   0.000000
                CHANNELS 3 Xrotation Yrotation Zrotation
                End Site
                {
                    OFFSET   0.000000   0.192650   0.000000
                }
            }
            JOINT rTorso_Clavicle
            {
                OFFSET  -0.001000   0.157500   0.000000
                CHANNELS 3 Xrotation Yrotation Zrotation
                JOINT rShoulder
                {
                    OFFSET  -0.117647   0.000000   0.000000
                    CHANNELS 3 Xrotation Yrotation Zrotation
                    JOINT rElbow
                    {
                        OFFSET  -0.245000   0.000000   0.000000
                        CHANNELS 3 Xrotation Yrotation Zrotation
                        JOINT rWrist
                        {
                            OFFSET  -0.240000   0.000000   0.000000
                            CHANNELS 3 Xrotation Yrotation Zrotation
                            End Site
                            {
                                OFFSET  -0.116353  -0.002500   0.000000
                            }
                        }
                    }
                }
            }
            JOINT lTorso_Clavicle
            {
                OFFSET   0.001000   0.157500   0.000000
                CHANNELS 3 Xrotation Yrotation Zrotation
                JOINT lShoulder
                {
                    OFFSET   0.117647   0.000000   0.000000
                    CHANNELS 3 Xrotation Yrotation Zrotation
                    JOINT lElbow
                    {
                        OFFSET   0.245000   0.000000   0.000000
                        CHANNELS 3 Xrotation Yrotation Zrotation
                        JOINT lWrist
                        {
                            OFFSET   0.240000   0.000000   0.000000
                            CHANNELS 3 Xrotation Yrotation Zrotation
                            End Site
                            {
                                OFFSET   0.116353  -0.002500   0.000000
                            }
                        }
                    }
                }
            }
        }
    }
    JOINT rHip
    {
        OFFSET  -0.100000  -0.051395   0.000000
        CHANNELS 3 Xrotation Yrotation Zrotation
        JOINT rKnee
        {
            OFFSET   0.000000  -0.410000   0.000000
            CHANNELS 3 Xrotation Yrotation Zrotation
            JOINT rAnkle
            {
                OFFSET   0.000000  -0.390000   0.000000
                CHANNELS 3 Xrotation Yrotation Zrotation
                JOINT rToeJoint
                {
                    OFFSET   0.000000  -0.050000   0.130000
                    CHANNELS 3 Xrotation Yrotation Zrotation
                    End Site
                    {
                        OFFSET  -0.010000   0.002000   0.060000
                    }
                }
            }
        }
    }
    JOINT lHip
    {
        OFFSET   0.100000  -0.051395   0.000000
        CHANNELS 3 Xrotation Yrotation Zrotation
        JOINT lKnee
        {
            OFFSET   0.000000  -0.410000   0.000000
            CHANNELS 3 Xrotation Yrotation Zrotation
            JOINT lAnkle
            {
                OFFSET   0.000000  -0.390000   0.000000
                CHANNELS 3 Xrotation Yrotation Zrotation
                JOINT lToeJoint
                {
                    OFFSET   0.000000  -0.050000   0.130000
                    CHANNELS 3 Xrotation Yrotation Zrotation
                    End Site
                    {
                        OFFSET   0.010000   0.002000   0.060000
                    }
                }
            }
        }
    }
}
MOTION
Frames: 15
Frame Time:   0.008333
 -3.027176   0.898465   3.883400  -1.589722  28.586036  -1.998698   0.272120  -3.749407  -0.217066   1.508757  -8.459649   2.235065   2.411234  -8.337376   3.530959  -4.280139   3.429395  -4.501147 -32.145140   1.736216   6.198148   0.002543  39.749722  -0.007208  -4.108476   4.573406  -6.277150  -2.660307 -11.994528   4.665938 -13.281880 -40.453916 -23.865214 179.999151 -82.771987 179.999037  -0.386639  -9.993658  -2.887608 -15.866558 -11.466619  -0.346317  18.509656   0.000175   0.000513  -0.874502  -8.962797   0.001830   0.143231  -0.000248   0.000079   4.742260   1.358773   4.982629  30.236649  -0.008370  -0.009758 -18.476110   0.569836  -0.850423  -4.782298  -0.002713  -0.002804
 -3.027957   0.898119   3.879009  -1.560740  29.023828  -1.954082   0.313150  -3.736436  -0.253881   1.557063  -8.445168   2.216651   2.535538  -8.352866   3.568385  -4.336364   3.439960  -4.513282 -32.523773   1.643335   6.038984   0.002785  39.235977  -0.007608  -4.188748   4.569376  -6.205717  -2.657726 -12.075381   4.727969 -13.159264 -40.826342 -23.800027 179.998936 -82.750200 179.998837  -0.463295  -9.989895  -2.837907 -16.196305 -11.748562  -0.638951  18.551008   0.000174   0.000445  -0.737026  -9.177189   0.229435   0.477847  -0.000654  -0.000270   4.899234   1.199621   4.920585  29.316905  -0.007872  -0.009644 -18.846524   0.238767  -0.718170  -5.208018  -0.002048  -0.001908
 -3.028730   0.897749   3.874561  -1.533195  29.436368  -1.917951   0.360028  -3.718508  -0.287842   1.605909  -8.431933   2.201886   2.658074  -8.362881   3.601673  -4.395806   3.443773  -4.534678 -32.883398   1.553733   5.877452   0.002953  38.751296  -0.007701  -4.271167   4.536500  -6.182188  -2.657892 -12.161909   4.799293 -13.044328 -41.190610 -23.733700 179.998637 -82.721002 179.998548  -0.536901  -9.986364  -2.838122 -16.519987 -12.022535  -0.922272  18.575461   0.000158   0.000373  -0.612172  -9.381692   0.449065   0.780377  -0.000932  -0.000531   5.036219   1.047574   4.860471  28.428609  -0.007393  -0.009363 -19.193818  -0.081815  -0.600771  -5.598356  -0.001557  -0.001208
 -3.029495   0.897348   3.870067  -1.514983  29.819591  -1.886779   0.414477  -3.702121  -0.318181   1.657323  -8.421128   2.187794   2.774630  -8.371429   3.632612  -4.453457   3.447269  -4.561186 -33.221211   1.472380   5.721759   0.003017  38.298846  -0.007532  -4.350813   4.499603  -6.176763  -2.660070 -12.246627   4.870055 -12.937446 -41.534178 -23.669078 179.998437 -82.692135 179.998355  -0.607305  -9.982948  -2.850590 -16.832161 -12.277527  -1.192137  18.587119   0.000136   0.000306  -0.497367  -9.572692   0.655418   1.057203  -0.001104  -0.000697   5.154801   0.906562   4.800702  27.587330  -0.006928  -0.008924 -19.519133  -0.383023  -0.493956  -5.968500  -0.001188  -0.000683
 -3.030248   0.896915   3.865541  -1.509198  30.171613  -1.858870   0.474917  -3.687385  -0.345941   1.711654  -8.411667   2.173802   2.884884  -8.379212   3.661502  -4.508221   3.451680  -4.589637 -33.537643   1.398873   5.574193   0.003007  37.877069  -0.007195  -4.426892   4.465864  -6.177056  -2.662602 -12.327747   4.937518 -12.837274 -41.856060 -23.607306 179.998345 -82.665120 179.998268  -0.674735  -9.979631  -2.865176 -17.131093 -12.513604  -1.448012  18.589316   0.000110   0.000246  -0.391350  -9.750671   0.848801   1.310655  -0.001195  -0.000797   5.258105   0.776661   4.741090  26.796237  -0.006471  -0.008356 -19.824900  -0.664477  -0.396403  -6.330059  -0.000912  -0.000280
 -3.030986   0.896447   3.860991  -1.517015  30.491690  -1.833348   0.539556  -3.673682  -0.371950   1.768316  -8.402696   2.159741   2.988876  -8.386396   3.688399  -4.559782   3.457166  -4.618127 -33.833650   1.332229   5.435535   0.002949  37.483914  -0.006764  -4.499440   4.436236  -6.178547  -2.664549 -12.404667   5.000836 -12.742836 -42.157044 -23.548813 179.998337 -82.640109 179.998264  -0.739376  -9.976410  -2.880310 -17.416358 -12.732220  -1.689966  18.584291   0.000085   0.000194  -0.293159  -9.916522   1.030034   1.542764  -0.001228  -0.000856   5.348923   0.657107   4.681708  26.054720  -0.006022  -0.007693 -20.113391  -0.927219  -0.307424  -6.693557  -0.000711   0.000039
 -3.031705   0.895944   3.856424  -1.538764  30.779861  -1.809631   0.606813  -3.660581  -0.396798   1.826453  -8.393743   2.145543   3.086745  -8.393057   3.713353  -4.608104   3.463635  -4.645578 -34.110339   1.271550   5.305907   0.002866  37.117382  -0.006291  -4.568652   4.410272  -6.179463  -2.665526 -12.477177   5.059835 -12.653506 -42.438238 -23.493672 179.998390 -82.617009 179.998320  -0.801369  -9.973281  -2.895965 -17.688034 -12.934849  -1.918334  18.573510   0.000060   0.000152  -0.202068 -10.071118   1.199928   1.755370  -0.001221  -0.000887   5.429504   0.547044   4.622589  25.360852  -0.005584  -0.006970 -20.386631  -1.172477  -0.226486  -7.067507  -0.000572   0.000306
 -3.032397   0.895255   3.851845  -1.544226  31.056931  -1.790554   0.639396  -3.622968  -0.433336   1.910781  -8.366055   2.133902   3.180312  -8.374573   3.744197  -4.647892   3.412333  -4.612900 -34.445217   1.189880   5.111009   0.002928  36.793947  -0.005982  -4.653669   4.455913  -6.170302  -2.659894 -12.529584   5.094525 -12.444437 -42.824925 -23.325808 179.998118 -82.585216 179.998045  -0.890877  -9.969724  -2.796624 -18.065747 -13.166976  -2.186661  18.743871   0.000171   0.000101  -0.261725 -10.210397   1.435781   1.795497  -0.001049  -0.000758   5.515416   0.492660   4.552595  24.634582  -0.005422  -0.006669 -20.694742  -1.429518  -0.076297  -7.527786  -0.000183   0.000481
 -3.033093   0.894443   3.847269  -1.566581  31.347026  -1.783314   0.682791  -3.597744  -0.458867   2.004478  -8.351421   2.131520   3.270562  -8.354402   3.772498  -4.689211   3.342532  -4.572208 -34.760422   1.098229   4.921903   0.002914  36.488210  -0.005617  -4.736748   4.500728  -6.197753  -2.641367 -12.578925   5.122976 -12.235415 -43.191922 -23.168668 179.997881 -82.550969 179.997796  -0.977515  -9.966208  -2.745954 -18.442989 -13.392553  -2.439856  18.946733   0.000284   0.000096  -0.302021 -10.343311   1.662933   1.820949  -0.000881  -0.000630   5.603608   0.447768   4.501094  23.935709  -0.005321  -0.006504 -20.999390  -1.664948   0.060748  -8.137533   0.000189   0.000450
 -3.033790   0.893550   3.842685  -1.605031  31.640644  -1.784740   0.735472  -3.583360  -0.475907   2.105178  -8.347484   2.136392   3.356323  -8.335134   3.798876  -4.728619   3.264987  -4.525387 -35.054728   1.002620   4.744252   0.002826  36.199291  -0.005209  -4.817839   4.529436  -6.236612  -2.615442 -12.624557   5.144582 -12.031452 -43.534414 -23.022187 179.997779 -82.519212 179.997680  -1.060973  -9.962699  -2.721745 -18.808949 -13.602428  -2.675627  19.158638   0.000384   0.000134  -0.328507 -10.467588   1.877619   1.845632  -0.000742  -0.000521   5.686842   0.409638   4.462837  23.274548  -0.005224  -0.006360 -21.297512  -1.880085   0.186110  -8.845556   0.000508   0.000232
 -3.034481   0.892604   3.838088  -1.658132  31.929840  -1.791164   0.795109  -3.576201  -0.487062   2.210254  -8.350206   2.146358   3.437475  -8.317042   3.823329  -4.765422   3.184780  -4.473738 -35.329098   0.906194   4.579098   0.002684  35.926922  -0.004783  -4.896886   4.543332  -6.276673  -2.585128 -12.666741   5.160924 -11.834462 -43.853419 -22.885251 179.997786 -82.490359 179.997675  -1.141269  -9.959211  -2.712288 -19.160470 -13.796271  -2.896601  19.368961   0.000464   0.000188  -0.346671 -10.583472   2.079490   1.869297  -0.000626  -0.000428   5.763134   0.377143   4.432149  22.651631  -0.005110  -0.006181 -21.587531  -2.077377   0.300617  -9.617488   0.000758  -0.000104
 -3.035005   0.892004   3.833626  -1.736823  32.166981  -1.672507   0.834732  -3.555141  -0.590686   2.315873  -8.343124   2.117500   3.514583  -8.299842   3.843536  -4.796502   3.100400  -4.387669 -35.581795   0.802188   4.439619   0.002490  35.672743  -0.004407  -4.971321   4.561567  -6.304299  -2.532633 -12.690908   5.154533 -11.628851 -44.144455 -22.762531 179.997888 -82.462728 179.997760  -1.217700  -9.955236  -2.749660 -19.459374 -13.948732  -3.217283  19.493936   0.000469   0.000146  -0.406267 -10.687404   2.250689   1.898101  -0.000535  -0.000365   5.845704   0.346275   4.278658  22.138252  -0.004812  -0.005682 -22.239357  -2.260026   0.295324  -8.398287   0.001223   0.000343
 -3.035442   0.891529   3.829283  -1.815460  32.375397  -1.538383   0.860296  -3.534308  -0.689860   2.407025  -8.334660   2.077638   3.583991  -8.283998   3.857580  -4.824934   3.017669  -4.309468 -35.816949   0.701469   4.309161   0.002328  35.432375  -0.004082  -5.044849   4.562235  -6.319099  -2.478501 -12.707242   5.148096 -11.431192 -44.412599 -22.648074 179.998013 -82.437175 179.997879  -1.292281  -9.951253  -2.788786 -19.722027 -14.083322  -3.539849  19.560266   0.000427   0.000105  -0.487141 -10.784233   2.402948   1.921779  -0.000454  -0.000312   5.916726   0.316722   4.101447  21.648056  -0.004524  -0.005146 -22.767044  -2.446106   0.302462  -7.288748   0.001511   0.000375
 -3.035751   0.891154   3.825125  -1.870681  32.575186  -1.338932   0.857875  -3.471759  -0.829116   2.457829  -8.314456   2.000276   3.589929  -8.247017   3.867729  -4.873955   2.882427  -4.176970 -36.079286   0.555394   4.131783   0.002151  35.286534  -0.003745  -5.126160   4.589277  -6.334797  -2.379274 -12.706913   5.139121 -11.080974 -44.746905 -22.398180 179.997325 -82.381665 179.997157  -1.375138  -9.948388  -2.740306 -20.001781 -14.220803  -3.913381  19.799868   0.000466  -0.000019  -0.531554 -10.867017   2.579227   1.826007  -0.000251  -0.000147   5.985480   0.327345   3.840391  21.121186  -0.004434  -0.004925 -23.152725  -2.666274   0.354711  -6.289992   0.001329   0.000392
 -3.035999   0.890846   3.821101  -1.917527  32.791181  -1.148615   0.844953  -3.416169  -0.943959   2.493145  -8.301825   1.928366   3.587741  -8.210228   3.874078  -4.925011   2.735073  -4.051499 -36.328064   0.406388   3.954859   0.001990  35.147654  -0.003463  -5.205447   4.621946  -6.389666  -2.270452 -12.701212   5.130017 -10.733534 -45.059606 -22.159790 179.996774 -82.326549 179.996583  -1.455359  -9.944699  -2.750816 -20.253797 -14.338133  -4.268643  20.016522   0.000488  -0.000036  -0.581281 -10.941819   2.735818   1.756547  -0.000133  -0.000071   6.041123   0.337380   3.584633  20.610333  -0.004364  -0.004794 -23.473425  -2.877270   0.409817  -5.373934   0.001113   0.000611
